#!OML:ASF I:\Actors\actors\Patient Classification 1\Patient 1\Session 1\Subject1.ASF
:FULLY-SPECIFIED
:DEGREES
468
root -0.523082 17.4795 8.26594 6.74862 9.78595 -9.36761
lowerback 3.04399 1.30871 5.34095
upperback -9.17001 2.4286 1.44641
thorax -11.409 0.793166 -1.73221
lowerneck 1.87854 -2.63921 -4.0702
upperneck 7.00713 -4.35671 14.2611
head 2.13541 -1.9641 4.91905
rclavicle 3.69739e-014 3.97569e-014
rhumerus -8.04171 11.5217 -86.114
rradius 105.079
rwrist 23.3914
rhand -2.03567 -41.0041
rfingers 7.12502
rthumb 23.6392 -429.571
lclavicle 3.69739e-014 3.97569e-014
lhumerus -3.50772 -29.2725 96.5867
lradius 88.8024
lwrist -29.6224
lhand -38.0175 -42.1628
lfingers 7.12502
lthumb -11.0561 -12.474
rfemur -5.96336 16.8834 26.993
rtibia 10.3106
rfoot -16.2425 -23.1888
rtoes 1.22751
lfemur -2.43594 -35.5545 -3.71668
ltibia -1.37446
lfoot -9.67045 40.1676
ltoes -6.45837
469
root -0.522004 17.4873 8.28745 7.14659 9.34613 -9.18889
lowerback 2.50816 1.20715 5.4529
upperback -9.27243 2.263 1.42868
thorax -11.2075 0.706513 -1.77891
lowerneck 2.34632 -2.47574 -3.80998
upperneck 8.17271 -4.23309 13.7659
head 2.37352 -1.88105 4.73348
rclavicle -9.83984e-015 -1.19271e-015
rhumerus -4.77545 8.71816 -82.6148
rradius 110.242
rwrist 26.6161
rhand -6.92273 -41.0315
rfingers 7.12502
rthumb 18.9451 -430.129
lclavicle -9.83984e-015 -1.19271e-015
lhumerus -0.176287 -24.1434 93.0105
lradius 92.5901
lwrist -27.5941
lhand -40.3189 -42.555
lfingers 7.12502
lthumb -13.2752 -12.9978
rfemur -6.19531 17.1017 26.6897
rtibia 10.1097
rfoot -16.152 -23.0175
rtoes 0.867117
lfemur -2.32216 -36.276 -3.9629
ltibia -1.60509
lfoot -10.3619 41.272
ltoes -5.25073
470
root -0.520081 17.4978 8.31999 7.52411 8.85104 -9.08236
lowerback 1.89598 1.11277 5.57401
upperback -9.27594 2.09974 1.46243
thorax -10.8493 0.628428 -1.77537
lowerneck 2.7003 -2.44762 -3.64141
upperneck 9.29311 -4.28726 13.3491
head 2.63915 -1.8855 4.58306
rclavicle 2.00773e-014 -4.37326e-015
rhumerus -1.72457 5.33591 -79.1733
rradius 115.111
rwrist 29.8132
rhand -10.8141 -41.2931
rfingers 7.12502
rthumb 15.1995 -430.715
lclavicle 2.00773e-014 -4.37326e-015
lhumerus 3.01527 -18.0675 89.6735
lradius 96.3463
lwrist -28.792
lhand -43.4298 -43.8184
lfingers 7.12502
lthumb -16.2722 -14.4812
rfemur -6.31352 17.4618 26.5041
rtibia 9.80484
rfoot -16.0901 -22.8831
rtoes 0.856706
lfemur -2.1054 -37.0454 -4.17871
ltibia -1.85087
lfoot -11.2147 42.4372
ltoes -3.7421
471
root -0.514551 17.5065 8.3625 7.7985 8.27306 -9.032
lowerback 1.42793 1.0743 5.85272
upperback -9.28434 2.02399 1.39787
thorax -10.5739 0.571269 -1.97974
lowerneck 3.03678 -2.53991 -3.519
upperneck 10.5572 -4.53783 13.2003
head 2.97393 -1.97568 4.52061
rclavicle 1.68967e-015 -1.98785e-015
rhumerus 0.757223 0.749048 -76.1659
rradius 119.515
rwrist 32.7051
rhand -14.9716 -41.1251
rfingers 7.12502
rthumb 11.1922 -430.807
lclavicle 1.68967e-015 -1.98785e-015
lhumerus 5.93789 -11.9105 86.7801
lradius 100.458
lwrist -30.1568
lhand -45.1897 -41.7722
lfingers 7.12502
lthumb -17.9662 -12.582
rfemur -6.20756 17.8464 26.4307
rtibia 9.36409
rfoot -15.9915 -22.6581
rtoes 0.913266
lfemur -1.67912 -37.5696 -4.47862
ltibia -2.10347
lfoot -11.9613 43.4401
ltoes -2.54625
472
root -0.507578 17.5142 8.40899 8.00394 7.68084 -8.9661
lowerback 1.16294 1.0796 6.10759
upperback -9.34651 2.0179 1.27483
thorax -10.4772 0.54122 -2.24612
lowerneck 3.33526 -2.70818 -3.55417
upperneck 12.1336 -4.95831 13.3792
head 3.43324 -2.1314 4.58548
rclavicle 1.04362e-014 -2.62396e-014
rhumerus 3.76098 -3.61327 -72.4274
rradius 123.132
rwrist 35.1784
rhand -18.3913 -42.2341
rfingers 7.12502
rthumb 7.89269 -432.067
lclavicle 1.04362e-014 -2.62396e-014
lhumerus 8.72698 -5.82384 84.3971
lradius 104.688
lwrist -29.7541
lhand -46.3884 -41.0248
lfingers 7.12502
lthumb -19.1192 -11.9445
rfemur -5.97089 18.2917 26.3762
rtibia 8.85853
rfoot -15.7284 -22.512
rtoes 0.488439
lfemur -1.21072 -37.8556 -4.85763
ltibia -2.26594
lfoot -12.7621 44.21
ltoes -1.35635
473
root -0.504375 17.5214 8.45722 8.13775 7.10184 -8.92285
lowerback 1.00885 1.12456 6.24004
upperback -9.44672 2.07137 1.19088
thorax -10.489 0.548954 -2.4113
lowerneck 3.7138 -2.95835 -3.75329
upperneck 13.8506 -5.52966 13.6842
head 3.94587 -2.35991 4.71905
rclavicle -1.19271e-015 -1.66979e-014
rhumerus 6.64788 -8.46501 -69.1599
rradius 126.175
rwrist 36.4259
rhand -22.1512 -43.7144
rfingers 7.12502
rthumb 4.26274 -433.651
lclavicle -1.19271e-015 -1.66979e-014
lhumerus 11.5015 0.0753078 82.6104
lradius 108.473
lwrist -29.1338
lhand -46.1922 -45.6496
lfingers 7.12502
lthumb -18.9306 -16.5509
rfemur -5.69354 18.8855 26.3921
rtibia 8.41643
rfoot -15.3832 -22.5654
rtoes -0.138874
lfemur -0.801264 -37.8538 -5.17188
ltibia -2.31925
lfoot -13.4047 44.7221
ltoes -0.745244
474
root -0.5035 17.5274 8.50646 8.22956 6.49297 -8.90116
lowerback 0.897536 1.17632 6.26794
upperback -9.54326 2.13639 1.17773
thorax -10.5254 0.574316 -2.44455
lowerneck 3.98422 -3.22795 -4.05206
upperneck 15.6858 -6.14949 13.9397
head 4.52731 -2.60986 4.8551
rclavicle 1.2424e-014 3.18055e-014
rhumerus 9.48196 -13.1761 -66.7715
rradius 128.666
rwrist 37.1448
rhand -25.7034 -46.1977
rfingers 7.12502
rthumb 0.832205 -436.176
lclavicle 1.2424e-014 3.18055e-014
lhumerus 14.3141 5.51676 81.4724
lradius 112.458
lwrist -27.7428
lhand -47.6716 -42.0233
lfingers 7.12502
lthumb -20.3529 -13.0699
rfemur -5.43962 19.4832 26.4344
rtibia 8.06388
rfoot -15.0953 -22.6042
rtoes -0.316999
lfemur -0.476444 -37.4914 -5.42104
ltibia -2.26144
lfoot -13.6958 44.9466
ltoes -0.830356
475
root -0.501791 17.5315 8.55552 8.29365 5.89514 -8.8418
lowerback 0.773382 1.19441 6.16725
upperback -9.56482 2.14823 1.23493
thorax -10.4774 0.592521 -2.32505
lowerneck 3.95957 -3.47567 -4.31904
upperneck 17.6147 -6.73612 14.0086
head 5.19129 -2.83591 4.92495
rclavicle 1.05356e-014 4.37326e-015
rhumerus 12.4666 -17.4778 -65.5412
rradius 130.755
rwrist 37.9955
rhand -27.7638 -49.6151
rfingers 7.12502
rthumb -1.15781 -439.592
lclavicle 1.05356e-014 4.37326e-015
lhumerus 17.3024 10.6757 81.1751
lradius 116.286
lwrist -26.5169
lhand -46.3422 -46.1236
lfingers 7.12502
lthumb -19.0748 -17.039
rfemur -5.22657 19.8466 26.4035
rtibia 7.82806
rfoot -14.9632 -22.4382
rtoes -0.308434
lfemur -0.218475 -36.9614 -5.71715
ltibia -2.07146
lfoot -14.0947 44.9526
ltoes -0.0358239
476
root -0.498543 17.5322 8.60294 8.33221 5.33233 -8.8433
lowerback 0.434396 1.23634 6.04911
upperback -9.45687 2.1703 1.3351
thorax -10.1536 0.630294 -2.14415
lowerneck 3.88793 -3.77188 -4.38082
upperneck 19.3665 -7.3416 13.8668
head 5.812 -3.07467 4.88712
rclavicle 5.06901e-015 -4.17448e-014
rhumerus 15.4612 -21.0863 -65.3882
rradius 132.623
rwrist 38.8048
rhand -30.7134 -51.89
rfingers 7.12502
rthumb -4.0064 -441.832
lclavicle 5.06901e-015 -4.17448e-014
lhumerus 20.4614 14.9311 81.6567
lradius 119.911
lwrist -25.7863
lhand -47.0087 -46.7734
lfingers 7.12502
lthumb -19.7157 -17.7533
rfemur -5.07137 19.976 26.4148
rtibia 7.74466
rfoot -15.0042 -22.0501
rtoes -0.531294
lfemur 0.0258945 -36.4767 -5.95597
ltibia -1.81969
lfoot -14.7702 44.9328
ltoes 1.76676
